<svg xmlns="http://www.w3.org/2000/svg" viewBox="0 0 600 600">
<rect width="600" height="600" fill="#F5F0E6"/>
<path d="M 105.5 2.3 L 321.1 4.7 Z" fill="none" stroke="#4A3A2A" stroke-width="1.5" stroke-linecap="round" stroke-linejoin="round"/>
<path d="M 323.4 2.3 L 72.7 407.8 Z" fill="none" stroke="#4A3A2A" stroke-width="1.5" stroke-linecap="round" stroke-linejoin="round"/>
<path d="M 393.8 2.3 L 131.2 487.5 Z" fill="none" stroke="#4A3A2A" stroke-width="1.5" stroke-linecap="round" stroke-linejoin="round"/>
<path d="M 398.4 72.7 L 344.5 246.1 Z" fill="none" stroke="#4A3A2A" stroke-width="1.5" stroke-linecap="round" stroke-linejoin="round"/>
<path d="M 377.3 232.0 L 368.0 576.6 Z" fill="none" stroke="#4A3A2A" stroke-width="1.5" stroke-linecap="round" stroke-linejoin="round"/>
<path d="M 525.0 262.5 L 539.1 262.5 Z" fill="none" stroke="#4A3A2A" stroke-width="1.5" stroke-linecap="round" stroke-linejoin="round"/>
<path d="M 417.2 89.1 L 365.6 143.0 Z" fill="none" stroke="#4A3A2A" stroke-width="1.5" stroke-linecap="round" stroke-linejoin="round"/>
<path d="M 560.2 2.3 L 595.3 2.3 Z" fill="none" stroke="#4A3A2A" stroke-width="1.5" stroke-linecap="round" stroke-linejoin="round"/>
<path d="M 520.3 2.3 L 499.2 68.0 Z" fill="none" stroke="#4A3A2A" stroke-width="1.5" stroke-linecap="round" stroke-linejoin="round"/>
<path d="M 2.3 2.3 L 35.2 2.3 Z" fill="none" stroke="#4A3A2A" stroke-width="1.5" stroke-linecap="round" stroke-linejoin="round"/>
<path d="M 70.3 428.9 L 56.2 454.7 Z" fill="none" stroke="#4A3A2A" stroke-width="1.5" stroke-linecap="round" stroke-linejoin="round"/>
<path d="M 595.3 91.4 L 595.3 260.2 Z" fill="none" stroke="#4A3A2A" stroke-width="1.5" stroke-linecap="round" stroke-linejoin="round"/>
<path d="M 16.4 553.1 L 30.5 571.9 Z" fill="none" stroke="#4A3A2A" stroke-width="1.5" stroke-linecap="round" stroke-linejoin="round"/>
<path d="M 65.6 2.3 L 58.6 77.3 Z" fill="none" stroke="#4A3A2A" stroke-width="1.5" stroke-linecap="round" stroke-linejoin="round"/>
<path d="M 457.0 311.7 L 438.3 330.5 Z" fill="none" stroke="#4A3A2A" stroke-width="1.5" stroke-linecap="round" stroke-linejoin="round"/>
<path d="M 595.3 543.8 L 595.3 595.3 Z" fill="none" stroke="#4A3A2A" stroke-width="1.5" stroke-linecap="round" stroke-linejoin="round"/>
<path d="M 77.3 42.2 L 77.3 98.4 Z" fill="none" stroke="#4A3A2A" stroke-width="1.5" stroke-linecap="round" stroke-linejoin="round"/>
<path d="M 377.3 2.3 L 389.1 25.8 Z" fill="none" stroke="#4A3A2A" stroke-width="1.5" stroke-linecap="round" stroke-linejoin="round"/>
<path d="M 11.7 396.1 L 30.5 431.2 Z" fill="none" stroke="#4A3A2A" stroke-width="1.5" stroke-linecap="round" stroke-linejoin="round"/>
<path d="M 107.8 473.4 L 79.7 494.5 Z" fill="none" stroke="#4A3A2A" stroke-width="1.5" stroke-linecap="round" stroke-linejoin="round"/>
<path d="M 161.7 567.2 L 159.4 581.2 Z" fill="none" stroke="#4A3A2A" stroke-width="1.5" stroke-linecap="round" stroke-linejoin="round"/>
<path d="M 32.8 133.6 L 32.8 150.0 Z" fill="none" stroke="#4A3A2A" stroke-width="1.5" stroke-linecap="round" stroke-linejoin="round"/>
</svg>