<svg xmlns="http://www.w3.org/2000/svg" viewBox="0 0 600 600">
<rect width="600" height="600" fill="#F5F0E6"/>
<path d="M 264.0 536.0 L 460.0 328.0 Z" fill="none" stroke="#4A3A2A" stroke-width="1.2"/>
<path d="M 226.0 52.0 L 452.0 498.0 Z" fill="none" stroke="#4A3A2A" stroke-width="1.2"/>
<path d="M 412.0 434.0 L 390.0 544.0 Z" fill="none" stroke="#4A3A2A" stroke-width="1.2"/>
<path d="M 136.0 566.0 L 366.0 408.0 Z" fill="none" stroke="#4A3A2A" stroke-width="1.2"/>
<path d="M 32.0 186.0 L 390.0 270.0 Z" fill="none" stroke="#4A3A2A" stroke-width="1.2"/>
<path d="M 180.0 84.0 L 328.0 504.0 Z" fill="none" stroke="#4A3A2A" stroke-width="1.2"/>
<path d="M 300.0 186.0 L 248.0 12.0 Z" fill="none" stroke="#4A3A2A" stroke-width="1.2"/>
<path d="M 106.0 320.0 L 252.0 538.0 Z" fill="none" stroke="#4A3A2A" stroke-width="1.2"/>
<path d="M 138.0 208.0 L 206.0 498.0 Z" fill="none" stroke="#4A3A2A" stroke-width="1.2"/>
<path d="M 258.0 310.0 L 250.0 392.0 Z" fill="none" stroke="#4A3A2A" stroke-width="1.2"/>
<path d="M 64.0 444.0 L 310.0 142.0 Z" fill="none" stroke="#4A3A2A" stroke-width="1.2"/>
<path d="M 170.0 96.0 L 206.0 308.0 Z" fill="none" stroke="#4A3A2A" stroke-width="1.2"/>
<path d="M 208.0 196.0 L 158.0 514.0 Z" fill="none" stroke="#4A3A2A" stroke-width="1.2"/>
<path d="M 142.0 300.0 L 164.0 204.0 Z" fill="none" stroke="#4A3A2A" stroke-width="1.2"/>
<path d="M 68.0 536.0 L 126.0 410.0 Z" fill="none" stroke="#4A3A2A" stroke-width="1.2"/>
<path d="M 360.0 186.0 L 392.0 150.0 Z" fill="none" stroke="#4A3A2A" stroke-width="1.2"/>
<path d="M 46.0 218.0 L 74.0 430.0 Z" fill="none" stroke="#4A3A2A" stroke-width="1.2"/>
<path d="M 194.0 116.0 L 204.0 56.0 Z" fill="none" stroke="#4A3A2A" stroke-width="1.2"/>
<path d="M 18.0 422.0 L 22.0 470.0 Z" fill="none" stroke="#4A3A2A" stroke-width="1.2"/>
<path d="M 594.0 178.0 L 580.0 188.0 Z" fill="none" stroke="#4A3A2A" stroke-width="1.2"/>
<path d="M 50.0 310.0 L 174.0 54.0 Z" fill="none" stroke="#4A3A2A" stroke-width="1.2"/>
<path d="M 544.0 64.0 L 542.0 66.0 Z" fill="none" stroke="#4A3A2A" stroke-width="1.2"/>
<path d="M 36.0 230.0 L 90.0 220.0 Z" fill="none" stroke="#4A3A2A" stroke-width="1.2"/>
<path d="M 16.0 240.0 L 40.0 238.0 Z" fill="none" stroke="#4A3A2A" stroke-width="1.2"/>
<path d="M 150.0 4.0 L 142.0 58.0 Z" fill="none" stroke="#4A3A2A" stroke-width="1.2"/>
<path d="M 214.0 418.0 L 198.0 410.0 Z" fill="none" stroke="#4A3A2A" stroke-width="1.2"/>
<path d="M 574.0 306.0 L 572.0 304.0 Z" fill="none" stroke="#4A3A2A" stroke-width="1.2"/>
<path d="M 110.0 258.0 L 96.0 278.0 Z" fill="none" stroke="#4A3A2A" stroke-width="1.2"/>
<path d="M 262.0 248.0 L 256.0 250.0 Z" fill="none" stroke="#4A3A2A" stroke-width="1.2"/>
<path d="M 520.0 426.0 L 522.0 414.0 Z" fill="none" stroke="#4A3A2A" stroke-width="1.2"/>
<path d="M 498.0 584.0 L 492.0 590.0 Z" fill="none" stroke="#4A3A2A" stroke-width="1.2"/>
<path d="M 528.0 290.0 L 524.0 276.0 Z" fill="none" stroke="#4A3A2A" stroke-width="1.2"/>
<path d="M 570.0 434.0 L 562.0 442.0 Z" fill="none" stroke="#4A3A2A" stroke-width="1.2"/>
<path d="M 516.0 334.0 L 504.0 336.0 Z" fill="none" stroke="#4A3A2A" stroke-width="1.2"/>
<path d="M 390.0 6.0 L 382.0 2.0 Z" fill="none" stroke="#4A3A2A" stroke-width="1.2"/>
<path d="M 228.0 190.0 L 206.0 188.0 Z" fill="none" stroke="#4A3A2A" stroke-width="1.2"/>
<path d="M 2.0 494.0 L 2.0 470.0 Z" fill="none" stroke="#4A3A2A" stroke-width="1.2"/>
<path d="M 290.0 426.0 L 286.0 420.0 Z" fill="none" stroke="#4A3A2A" stroke-width="1.2"/>
<path d="M 390.0 388.0 L 386.0 386.0 Z" fill="none" stroke="#4A3A2A" stroke-width="1.2"/>
<path d="M 216.0 348.0 L 208.0 376.0 Z" fill="none" stroke="#4A3A2A" stroke-width="1.2"/>
<path d="M 318.0 10.0 L 316.0 8.0 Z" fill="none" stroke="#4A3A2A" stroke-width="1.2"/>
<path d="M 226.0 20.0 L 224.0 2.0 Z" fill="none" stroke="#4A3A2A" stroke-width="1.2"/>
<path d="M 488.0 344.0 L 484.0 342.0 Z" fill="none" stroke="#4A3A2A" stroke-width="1.2"/>
<path d="M 312.0 496.0 L 312.0 494.0 Z" fill="none" stroke="#4A3A2A" stroke-width="1.2"/>
<path d="M 466.0 396.0 L 462.0 394.0 Z" fill="none" stroke="#4A3A2A" stroke-width="1.2"/>
<path d="M 208.0 10.0 L 206.0 2.0 Z" fill="none" stroke="#4A3A2A" stroke-width="1.2"/>
<path d="M 300.0 122.0 L 288.0 100.0 Z" fill="none" stroke="#4A3A2A" stroke-width="1.2"/>
</svg>